<svg width="256" height="94" viewBox="0 0 256 94" fill="none" xmlns="http://www.w3.org/2000/svg">
<path d="M69.9343 52.3586C69.6945 55.1634 68.4022 57.7735 66.3172 59.6648C64.2321 61.556 61.5087 62.5882 58.6939 62.5542H52.4951L40.6879 70.2288V62.5542L52.4951 54.8795H58.7057C59.5844 54.9112 60.4424 54.6083 61.1065 54.0319C61.7705 53.4555 62.1911 52.6486 62.2833 51.7742C62.6442 45.8751 62.6146 39.9586 62.1947 34.0634C62.1236 33.277 61.7719 32.5424 61.2039 31.994C60.636 31.4455 59.8896 31.1197 59.1012 31.0761C55.0749 30.8282 50.8362 30.6747 46.5915 30.6747C42.3468 30.6747 38.108 30.8164 34.0817 31.0997C33.2934 31.1433 32.547 31.4691 31.979 32.0176C31.411 32.5661 31.0593 33.3006 30.9882 34.087C30.5684 39.9822 30.5388 45.8987 30.8997 51.7978C30.9974 52.668 31.4203 53.4691 32.0838 54.0406C32.7473 54.6121 33.6022 54.9117 34.4773 54.8795H40.6879V62.5542H34.4891C31.6774 62.5821 28.959 61.5464 26.8788 59.6545C24.7987 57.7626 23.5104 55.1544 23.2722 52.3527C22.8818 46.0606 22.9114 39.7494 23.3608 33.4612C23.5839 30.8535 24.7316 28.4115 26.5968 26.5755C28.462 24.7396 30.9219 23.6306 33.5327 23.4487C37.7361 23.1476 42.1638 23 46.5915 23C51.0192 23 55.4469 23.1476 59.6502 23.4487C62.269 23.6259 64.7375 24.7359 66.608 26.5772C68.4786 28.4185 69.6273 30.8692 69.8458 33.4848C70.2944 39.7671 70.324 46.0724 69.9343 52.3586V52.3586Z" fill="#1B1B20"/>
<path d="M82.0137 56.6861H100.563V52.0341H87.6339V28.585H82.0137V56.6861Z" fill="#1B1B20"/>
<path d="M103.267 56.6861H108.728V35.8109H103.267V56.6861ZM102.824 30.356C102.86 31.1739 103.209 31.9466 103.8 32.5129C104.392 33.0791 105.179 33.3952 105.997 33.3952C106.816 33.3952 107.603 33.0791 108.194 32.5129C108.786 31.9466 109.135 31.1739 109.171 30.356C109.189 29.9278 109.121 29.5003 108.97 29.0992C108.818 28.6981 108.588 28.3317 108.291 28.0222C107.995 27.7126 107.639 27.4663 107.244 27.298C106.85 27.1297 106.426 27.043 105.997 27.043C105.569 27.043 105.145 27.1297 104.75 27.298C104.356 27.4663 104 27.7126 103.704 28.0222C103.407 28.3317 103.176 28.6981 103.025 29.0992C102.874 29.5003 102.806 29.9278 102.824 30.356V30.356Z" fill="#1B1B20"/>
<path d="M130.116 35.811H124.655L120.163 51.1073L115.664 35.811H110.203L117.287 56.6862H122.984L130.116 35.811Z" fill="#1B1B20"/>
<path d="M139.869 57.1704C144.485 57.1704 148.222 54.4017 148.943 50.5879H144.167C143.641 52.0343 142.201 53.2386 139.869 53.2386C136.698 53.2386 135.453 51.1074 135.453 48.6574V48.1379H149.102V44.4836C149.102 39.4655 145.973 35.333 139.792 35.333C133.611 35.333 130.157 39.3475 130.157 45.009V47.8546C130.145 53.6991 133.965 57.1704 139.869 57.1704ZM135.441 44.0821C135.441 41.272 136.622 39.1881 139.78 39.1881C142.732 39.1881 144.072 41.154 144.072 43.7634V44.2829H135.441V44.0821Z" fill="#1B1B20"/>
<path d="M163.601 57.2414C170.685 57.2414 175.083 52.424 175.367 46.6798H170.148C169.782 49.85 167.786 52.6247 163.601 52.6247C158.907 52.6247 156.9 49.4132 156.9 44.9146V40.3511C156.9 35.8526 158.907 32.641 163.601 32.641C167.775 32.641 169.782 35.4098 170.148 38.586H175.367C175.083 32.8418 170.709 28.0244 163.601 28.0244C155.129 28.0244 151.315 33.4439 151.315 40.6286V44.6431C151.315 51.8337 155.129 57.2414 163.601 57.2414Z" fill="#1B1B20"/>
<path d="M178.331 56.6859H183.792V44.3237C183.792 41.5136 185.356 40.0672 187.806 40.0672C190.457 40.0672 191.62 41.797 191.62 44.1997V56.6859H197.081V43.3201C197.081 38.3847 194.229 35.3325 189.695 35.3325C187.003 35.3325 184.878 36.5132 183.792 38.2843V27.3804H178.331V56.6859Z" fill="#1B1B20"/>
<path d="M207.501 57.1704C209.909 57.1704 212.56 56.1668 213.522 54.7618V56.6863H218.783V43.3619C218.783 38.5032 215.211 35.333 209.992 35.333C205.494 35.333 202.241 37.4996 201.036 41.5554H206.096C206.657 40.4278 207.82 39.5895 209.709 39.5895C211.958 39.5895 213.322 41.03 213.322 42.9605V45.8119C211.806 44.6303 209.93 44.0051 208.008 44.0408C202.99 44.0408 199.578 46.1307 199.578 50.6647C199.59 54.7204 202.801 57.1704 207.501 57.1704ZM208.906 53.5574C206.615 53.5574 204.891 52.4358 204.891 50.5053C204.891 48.5748 206.497 47.5535 209.065 47.5535C211.515 47.5535 213.322 48.6397 213.322 50.5053C213.322 52.3708 211.303 53.5574 208.906 53.5574V53.5574Z" fill="#1B1B20"/>
<path d="M229.014 56.6859H232.786V52.27H230.549C229.102 52.27 228.583 51.7092 228.583 50.3454V40.2266H233.04V35.8107H228.583V30.1138H223.11V35.8107H220.158V40.2266H223.11V50.7469C223.11 54.4425 224.97 56.6859 229.014 56.6859Z" fill="#1B1B20"/>
</svg>
